<svg xmlns="http://www.w3.org/2000/svg" data-name="Layer 1" viewBox="0 0 1000 1250" x="0px" y="0px"><title>6367-Horror Book</title><path d="M768.29,825H231.71a16,16,0,0,1,0-32H768.29a16,16,0,0,1,0,32Z"/><path d="M872.31,916H218.69a107,107,0,0,1,0-214H872.31a16,16,0,0,1,16,16V900A16,16,0,0,1,872.31,916ZM218.69,734a75,75,0,0,0,0,150H856.31V734Z"/><path d="M127.69,825a16,16,0,0,1-16-16V191.13A107.24,107.24,0,0,1,218.81,84h653.5a16,16,0,0,1,16,16V718a16,16,0,0,1-32,0V116H218.81a75.21,75.21,0,0,0-75.12,75.13V809A16,16,0,0,1,127.69,825Z"/><path d="M533.27,658.43H466.73a96,96,0,0,1-95.85-95.85v-.32a27.92,27.92,0,0,0-10.1-21.32,215.77,215.77,0,0,1-76.87-165.28c0-57.9,23-112.46,64.8-153.61s96.75-63.34,154.69-62.45A216.09,216.09,0,0,1,639.25,540.91a28,28,0,0,0-10.13,21.35v.32A96,96,0,0,1,533.27,658.43ZM500,191.57c-48.25,0-93.91,18.86-128.88,53.28-35.63,35.09-55.25,81.55-55.25,130.81a183.84,183.84,0,0,0,65.5,140.82,59.85,59.85,0,0,1,21.47,45.78v.32a63.92,63.92,0,0,0,63.85,63.85h66.54a63.92,63.92,0,0,0,63.85-63.85v-.32a59.92,59.92,0,0,1,21.5-45.81,183.81,183.81,0,0,0,65.47-140.79c0-100-81.28-182.53-181.19-184.07Z"/><path d="M419.81,401.57c-15.55,0-30.33-4.84-41.61-13.62-12.3-9.56-19.35-23.18-19.35-37.35s7-27.8,19.35-37.36c11.28-8.78,26.06-13.62,41.61-13.62s30.32,4.84,41.61,13.62c12.29,9.56,19.34,23.18,19.34,37.36s-7.05,27.79-19.34,37.35C450.13,396.73,435.36,401.57,419.81,401.57Zm0-69.95c-15.43,0-29,8.87-29,19s13.53,19,29,19,28.95-8.87,28.95-19S435.23,331.62,419.81,331.62Z"/><path d="M580.19,401.57c-15.55,0-30.32-4.84-41.61-13.62-12.29-9.56-19.34-23.18-19.34-37.35s7-27.8,19.34-37.36c11.29-8.78,26.06-13.62,41.61-13.62s30.33,4.84,41.61,13.62c12.3,9.56,19.35,23.18,19.35,37.36s-7,27.79-19.35,37.35C610.52,396.73,595.74,401.57,580.19,401.57Zm0-69.95c-15.42,0-29,8.87-29,19s13.53,19,29,19,29-8.87,29-19S595.62,331.62,580.19,331.62Z"/><path d="M515.75,525h-31.5a41,41,0,0,1-36-60.6h0L464,435.43a41,41,0,0,1,72,0l15.76,28.92a41,41,0,0,1-36,60.6Zm-39.4-45.29a9,9,0,0,0,7.9,13.29h31.5a9,9,0,0,0,7.9-13.29l-15.76-28.91a9,9,0,0,0-15.78,0l-15.76,28.92Z"/><text x="0" y="1015" fill="#000000" font-size="5px" font-weight="bold" font-family="'Helvetica Neue', Helvetica, Arial-Unicode, Arial, Sans-serif">Created by IYIKON</text><text x="0" y="1020" fill="#000000" font-size="5px" font-weight="bold" font-family="'Helvetica Neue', Helvetica, Arial-Unicode, Arial, Sans-serif">from the Noun Project</text></svg>