<svg xmlns="http://www.w3.org/2000/svg" xmlns:xlink="http://www.w3.org/1999/xlink" version="1.1" x="0px" y="0px" viewBox="0 0 266 332.5" style="enable-background:new 0 0 266 266;" xml:space="preserve"><g><path d="M26.31992,109.81406c4.24365,8.85303,7.76416,18.01416,11.26123,27.18359   c-1.38879-1.25439-3.03271-0.04248-2.33813,1.22314c1.25256,2.2832,2.97888,4.19873,5.01819,5.77002   c0.78857,2.0415,1.58313,4.08057,2.39587,6.11182c5.28735,13.21143,11.28369,26.13672,16.43262,39.40381   c-0.75134,1.11279,0.46191,1.82178,0.81287,2.10693c8.58789,22.59082,17.25842,57.39648,38.77844,67.97168   c17.4021,8.55225,48.28016-6.66162,65.09376-15.50195c40.01172-21.03613,71.27832-31.18115,78.85596-48.87793   c7.03198-16.42188-7.23853-31.19922-10.93506-46.46875c4.07251-3.94678,7.41052-8.80176,9.7605-13.08105   c2.54126-4.62842,3.70959-9.70117,2.39221-14.86328c-2.31506-9.07031-11.84436-14.53857-10.77698-11.16553   c1.33179,4.2085,5.22144,7.10156,6.93616,11.23242c2.09094,5.03711-0.22717,10.22363-2.6554,14.64551   c-7.34021,13.3667-16.61731,16.00684-21.49805,19.90967c-0.40137,0.3208-0.1095,1.06543,0.39819,1.04248   c5.28162-0.23828,10.11023-2.91455,14.25098-6.60889c-0.44263,10.50781,9.73633,20.51807,10.98718,34.02002   c1.80627,19.49756-20.76941,28.74316-60.44226,47.43799c-10.23853,4.82471-20.05713,10.47168-30.20361,15.47559   c-0.43164-2.354-2.89551-4.13379-4.8374-5.38086c-0.26831-0.17236,2.71252-8.75586,2.72266-10.39697   c0.00159-0.24268-0.18835-0.53564-0.41797-0.62256c-2.91895-1.09912-4.94385-4.22949-7.77222-5.12061   c-0.10168-0.03223-0.1936,0.03125-0.20947,0.13379c-0.28174,1.82568,2.81763,3.56348,3.99292,4.44727   c1.6355,1.22998,3.12573,1.11279,2.70508,3.71631c-0.75732,4.68652-4.38062,7.71338-2.78467,8.59082   c2.49878,1.37207,4.05908,2.94043,5.51306,5.17139c-40.93519,19.94141-55.52283,12.91309-69.8805-14.46094   c3.58508,2.38867,7.99634,4.09375,11.43848,5.22998c7.08057,2.33691,14.93555,1.45703,21.21082-2.48145   c0.98523-0.61816,0.33081-2.20605-0.77551-2.08545c-7.10693,0.77539-13.52332,2.16553-20.56897,0.08691   c-4.755-1.40283-9.20239-5.14307-14.04089-6.33691c-4.84448-10.5415-8.35938-21.78711-12.26733-32.64404   c8.6001,3.67969,19.47974,1.91943,27.3313-2.58398c1.2804-0.73438,0.67358-2.60889-0.79956-2.42871   c-5.30884,0.64893-10.33081,2.47119-15.70557,2.78125c-4.45386,0.25732-8.46484-1.35596-12.61011-2.57129   c-5.32959-14.06494-11.66357-27.43555-17.90796-42.94482c7.77649,3.41455,17.70483,3.31494,24.86731,0.05615   c1.34338-0.61133,0.62073-2.38574-0.59692-2.53711c-8.39697-1.04395-16.2179,3.29688-26.58228-3.29492   c-3.25269-8.17285-6.5282-16.34082-10.3855-24.23633c12.20056,11.15723,27.34998,11.2959,42.26025,7.01123   c8.5094,10.05225,8.73987,16.36084,13.44153,34.50879c12.72729,49.12109,27.67896,37.91113,33.17676,71.60791   c1.26709,7.76563,3.37842,20.99219,13.29932,21.69531c0.81836,0.05811,1.35742-1.04932,0.60352-1.54932   c-9.17677-6.08545-9.52442-16.84277-11.23512-26.74268c-2.17676-12.59766-10.65112-22.12207-17.95911-32.09961   c-16.82996-22.97949-14.35876-58.63867-28.27942-68.35693c11.16333-3.64795,22.06812-9.53369,31.3623-14.8623   c28.87476-16.55322,60.88392-31.1582,83.80006-55.91895c-1.5415,3.80762-1.76599,7.94629-2.07227,12.01123   c-0.02173,0.2876,0.24634,0.60449,0.52563,0.65186c4.71802,0.79346,8.29272,0.31982,6.29932,8.06445   c-0.67493,2.62305-1.88477,5.11084-0.52649,7.67139c0.2135,0.40234,0.90027,0.30713,0.82617-0.20703   c-0.54395-3.7749,4.36755-12.10303,0.19641-15.15576c-1.29517-0.94775-2.62402-1.17432-4.20825-1.39014   c-3.33105-0.45313-0.44214-9.2793,0.06812-11.65332c0.08496-0.39453-0.27393-0.58838-0.59814-0.53809   c0.34033-0.37207,0.67334-0.75293,1.00952-1.12988c3.53149,8.43652,1.31128-1.62109,9.02283,25.52148   c4.51355,15.88623,9.10632,21.04834,13.57251,32.6875c1.22351,3.18848,1.52063,6.91309,3.32874,9.81201   c0.26428,0.42383,1.00513,0.43799,1.21411-0.05518c2.93823-6.93848-4.00073-17.93311-6.98206-24.03271   c-8.89026-18.19043-8.99158-28.92139-15.39038-42.10107c-0.21472-0.44189-3.99963-7.05518-5.24597-5.01563   c-5.8877,4.40576-15.41138,17.72266-73.15882,49.66455c-21.04993,11.64307-46.98816,31.42139-72.42529,24.08936   c-15.07227-4.34473-26.01062-18.87109-21.47791-34.38281c8.7644-29.99121,65.55798-62.79736,94.02979-75.44922   c4.73669-2.10498,9.29395-4.87988,14.28419-6.32373c-3.14307,10.92529-0.97656,24.8623,6.66138,33.57715   c5.09998,5.81885,12.72998,8.479,20.00305,10.31787c9.82019,2.48242,19.03992,0.38379,28.91138-0.56152   c1.76624-0.16895,1.76709-2.67432,0.09485-3.02051c-7.87268-1.62939-15.81262,1.88672-23.85962,0.66504   c-8.92358-1.35449-18.08838-4.61523-23.79248-11.9209c-8.93335-11.4414-2.73047-28.78857-7.62292-29.17724   c0.05933-0.01611,0.11682-0.03809,0.17639-0.05371c0.46655-0.12451,0.26465-0.93018-0.20703-0.82617   c-29.5116,6.50928-57.50282,23.53223-80.99512,42.20068C36.93272,60.15341,10.45103,86.39706,26.31992,109.81406z"/><path d="M230.60606,115.18369c1.73535-4.87305,3.12061-10.66064,0.22046-15.32129c-2.31543-3.72119-8.35071-4.375-12.27026-4.94824   c-0.74768-0.10889-1.74487,0.69141-1.1416,1.48975c1.84961,2.44775,4.57666,2.82031,7.37891,3.71143   c6.07361,1.93164,3.90405,9.75586,2.37122,14.2124c-1.31677,3.82861-3.67004,7.25244-6.66724,9.94092   c-3.32849,2.98535-7.64453,2.80029-10.99597,5.2627c-0.3313,0.24658,3.83435,3.41895,11.89282-1.73145   C225.76256,125.00839,228.90147,119.97079,230.60606,115.18369z"/><path d="M208.43321,134.52011c-5.24573-4.43311-7.24268-11.39746-10.08606-17.3999   c-10.72522-22.6416-39.0592-24.96387-60.20447-17.87598c-7.55798,2.53369-13.1587,6.21631-18.07764,12.25098   c-5.48389,0.07617-14.34375,14.39551-15.87598,16.96826c-6.81238,11.43799-6.99854,23.80908-2.1123,36.09912   c4.46045,11.21875,11.23047,24.75928,22.40332,30.55566c7.46632,3.87305,17.32874,3.83398,21.84107-2.36475   c1.09082,2.46826,2.47363,4.81396,3.94934,7.25244c2.44543,4.04102,5.10974,7.97412,9.63306,9.87061   c16.51013,6.92139,37.24524-1.96484,54.50427-7.61963c3.96313-1.29785,7.82739-3.59863,9.71692-7.43408   c5.47351-11.11133-11.30273-27.44531-13.05334-37.82617c-0.87097-5.1665,2.7561-9.57227,2.62231-14.53174   C213.59886,138.95322,210.94102,136.63974,208.43321,134.52011z M109.53928,128.32529   c7.9729-13.27148,11.53735-12.35059,12.77356-15.41992c0.14026-0.34814-0.14771-0.54443-0.45752-0.79541   c10.15357-7.57764,24.76002-12.0542,36.5022-12.55225c0.23413,2.3999,0.8418,4.73926,0.94019,7.1792   c-7.45825-1.30859-16.66797-4.51123-17.55713,5.71777c-0.13403,1.54443-1.16089,5.76807-0.35352,6.10645   c-2.41089-1.01025-4.57092-0.97754-7.12793-0.37891c-11.95679,2.80029-12.87452,19.77734-15.37208,30.15967   c-4.84155-3.1582-8.73608-7.67676-13.94287-10.12793C106.03135,134.83261,107.60618,131.54306,109.53928,128.32529z    M220.75279,193.80917c-2.86133,4.88379-11.03723,5.93213-15.88477,7.59229c-12.51733,4.28662-24.44482,8.53418-37.88916,6.88184   c-5.54004-0.68115-9.51416-3.21338-12.71753-7.78418c-2.17029-3.09668-4.68164-6.5874-6.59814-10.16211   c0.55859-1.35352,0.9292-2.90039,1.05469-4.66797c0.09692-1.36426-1.58337-1.80957-2.23462-0.64111   c-0.2251,0.4043-0.45691,0.79541-0.69214,1.18066c-0.10547-0.29004-0.22852-0.58057-0.32056-0.86963   c-0.24963-0.78418-1.31445-0.47803-1.21167,0.30762c0.10107,0.77246,0.24634,1.51709,0.41504,2.24707   c-2.55481,3.52783-5.80469,5.82324-10.6825,5.48633c-5.2782-0.36523-10.18763-3.73047-13.82789-7.33203   c-3.63391-3.59521-6.18115-8.16602-8.51941-12.6582c-5.72925-11.00635-10.25098-20.17578-7.52771-32.13965   c4.20276,2.90918,13.33386,11.74756,15.95349,11.625c-0.22144,0.46094-0.18481,8.93896,1.32971,8.75488   c4.90942-0.59717,4.6842,5.31543,5.23523,8.75391c0.03882,0.2417,0.42004,0.19971,0.42407-0.04004   c0.07153-4.25293,0.03662-8.86328-4.11646-9.70313c-1.63281-0.33057-1.44141-0.94922-1.3645-7.56689   c0.00415-0.35205-0.18555-0.55371-0.43018-0.63867c3.33032-2.90771,1.35352-30.78418,16.83204-31.26318   c1.89014-0.05908,4.04077,3.3501,6.88867-3.55859c0.91992-2.23193-1.86572-10.1582,6.67114-9.11963   c5.77002,0.70166,10.71875,3.4541,11.04834,0.23926c0.32422-3.16211,0.14526-6.40967-1.18018-9.21338   c12.08704,0.15967,24.54834,4.48096,31.26245,14.90332c-1.70715,0.17334-4.47827,1.45264-6.48779,3.65967   c-0.20142-0.0752-0.43445-0.06934-0.66333,0.09473c-4.3269,3.09668-3.67822,11.96387,0.93591,14.50928   c0.328,0.18066,0.63147-0.16602,0.62244-0.46924c-0.09668-3.23145-1.94312-5.94092-1.97742-8.81006   c0.42615-0.70557,0.72449-1.4624,1.13928-2.2002c2.55225-4.54004,6.98193-4.11621,7.87634-4.38184   c3.08325,5.52246,5.22729,11.6416,9.19836,16.98828c2.44067,3.28613,7.96533,5.34473,7.07446,10.08105   c-1.30164,6.92188-5.25757,10.73242,0.38867,21.00293c-5.40454-1.46045-16.8147,1.01172-25.00769,8.52148   c-0.22058,0.01074-0.44055,0.19385-0.45178,0.41748c-2.24854,2.14844-4.12097,4.62793-5.13464,7.29785   c-9.12659-1.73486-16.50537-8.04834-17.00049-18.34717c2.44873,0.75391,4.76721,1.79443,6.77856,3.16846   c0.77283,0.52783,1.7749-0.43164,1.16162-1.19385c-5.48975-6.82324-19.09705-7.35693-26.95752-5.76563   c-6.24524,1.26416-12.38489,7.43945-9.1073,14.07227c2.4928,5.04492,9.6615,7.32031,14.88672,6.93457   c6.6272-0.48926,5.729-6.23438,3.08374-10.33643c3.55518-2.16406,3.93469,1.67871,4.49927,5.7085   c0.49756,3.55273,1.10486,6.60156,2.78027,9.82764c3.5083,6.75439,10.84009,8.81201,17.94592,8.60156   c8.78271-0.26025,18.8114-0.44336,26.90173-3.90332c0.13843,0.15137,0.27502,0.30859,0.41504,0.45557   c0.31299,0.32861,0.74268-0.11621,0.64355-0.46387c-0.03906-0.13672-0.08667-0.26953-0.12793-0.40527   c5.51172-2.53223,11.49609-6.87012,11.45471-12.28271C220.29601,182.77841,223.6671,188.83456,220.75279,193.80917z    M198.29601,179.25449c-2.51733,1.03271-5.22632,1.67334-7.93579,2.02441c-0.76831-2.06201-1.66406-4.271-2.95557-6.11865   c2.58325-2.51855,4.83105-4.27344,8.07544-5.57227c-0.07202,0.06104-0.12415,0.1416-0.10486,0.26172   C195.86559,172.90536,196.89391,176.1412,198.29601,179.25449z M191.47752,184.24326   c2.79456-0.41455,5.52002-1.2002,8.13733-2.30518c0.99658,1.86768,2.11816,3.65332,3.33142,5.28516   c-3.22888,1.20947-6.92285,1.95215-10.58337,2.57227C192.60948,187.93906,192.12389,186.05673,191.47752,184.24326z    M149.72972,170.12607c2.53845,3.24902,3.96423,6.98389-1.46204,6.77051c-3.92957-0.15479-8.67993-2.18262-10.43787-5.88281   c-3.67102-7.72803,11.7229-12.25293,24.99695-8.33789c-2.3584,14.61182,11.75989,22.95313,26.34839,21.82422   c0.53796,1.89941,1.04688,3.83008,2.03979,5.48389c-29.96558,4.72852-28.50037-7.24414-31.0896-18.71973   c-1.30933-5.80322-5.51758-6.62012-9.974-3.18896C149.55382,168.53525,149.20726,169.45712,149.72972,170.12607z    M181.05064,181.28183c1.83411-1.50732,3.42847-3.17871,5.04004-4.81396c0.62964,1.69873,1.42517,3.36523,2.08972,5.03271   C185.85533,181.68222,183.70641,181.69785,181.05064,181.28183z M212.63597,168.10458   c1.54871,2.59814,2.99829,5.30664,4.37512,8.04297c-0.10754-0.01514-0.2229,0.00195-0.34045,0.07031   c-4.37964,2.54883-4.44324,6.74854-11.71667,10.16064c-0.81482-1.92871-1.78052-3.78369-2.7782-5.6416   c2.46008-1.28271,4.5072-2.8252,6.21643-4.53467c0.92285,1.76367,1.83838,3.52881,2.67078,5.32666   c0.08606,0.18604,0.36145,0.0791,0.32971-0.11328c-0.37683-2.29492-1.01782-4.43701-1.79492-6.53467   c1.78735-2.13379,3.02026-4.57324,2.81006-7.02783c-0.00732-0.08545-0.03015-0.15723-0.05542-0.22607   C212.44749,167.78622,212.54039,167.94394,212.63597,168.10458z M211.79137,166.68173   c0.13367,0.22754,0.27148,0.45752,0.40735,0.68604c-1.16248-1.16699-2.75293,1.98779-4.00208,4.04102   c-0.41333-0.96533-0.8396-1.93311-1.26953-2.91504c-0.56335-1.28711-2.66431-0.604-2.08203,0.66553   c0.64136,1.39893,1.33643,2.77295,2.04297,4.14209c-1.65015,2.02344-3.854,3.51074-6.12683,4.78027   c-0.58044-1.11865-4.25781-8.63477-5.07434-8.57422C203.54442,166.46884,207.85313,168.4249,211.79137,166.68173z"/><path d="M162.67052,151.09335c10.00586-1.03711,15.30005-9.96045,11.54321-19.13867   c-2.37329-5.79785-9.27148-10.5332-14.67029-7.2373c-1.79907-0.85938-4.29089-0.08936-5.82434,1.13477   c-3.01355,2.40479-4.34351,6.41943-4.77783,10.10938C147.88597,144.92441,153.32896,152.06161,162.67052,151.09335z    M156.60667,127.27988c-0.12805,0.14551-0.25549,0.29248-0.38074,0.44336c-0.573,0.69092,0.40796,1.80664,1.16833,1.33252   c5.63989-3.51514,11.44031-0.1709,13.44177,5.65088c2.57349,7.48584-3.61475,12.59766-10.79968,12.56836   C150.37535,147.23642,150.7274,130.65683,156.60667,127.27988z"/><path d="M100.55393,35.63242c9.22485-4.43994,19.16602-8.80029,29.53004-9.38965c0.46912-0.02637,0.48071-0.73438,0.0304-0.8125   c-11.45875-1.98828-22.27808,3.22266-32.46778,7.88525c-9.35278,4.27979-18.64551,8.31836-27.26855,13.99463   c-13.32275,8.77002-30.84265,26.10205-23.573,43.82666c7.4751,18.22559,33.63892,9.95313,47.08691,5.46094   c31.28638-10.45117,40.93714-27.31641,60.15418-38.26465c1.07507-0.61279,0.2655-2.07617-0.84753-1.67236   c-8.84644,3.20947-16.3667,8.48584-23.60718,14.40723c-16.86085,13.7876-32.77845,22.11816-56.60194,26.23047   c-22.08875,3.81348-30.70251-12.05078-17.06262-31.43359C66.6041,50.69247,87.92551,41.71005,100.55393,35.63242z"/><path d="M190.10191,153.08994c6.19287-0.72705,7.59009-8.0415,5.62402-13.48389c0.96021,0.00732,1.92749-0.23242,2.60144-0.66064   c4.46521-2.83789,2.70959-8.64404,2.12769-6.74707c-1.03784,3.38232-2.13,6.47021-5.54504,5.60352   c-1.5791-2.83398-4.22986-4.7124-7.67871-3.99023c-0.56348,0.11816-0.51111,0.84619,0.01733,0.96777   c3.85095,0.88477,6.17017,3.65234,6.84277,7.46631c1.65125,9.3623-8.17908,12.31982-10.45886,1.56348   c-0.35132-1.65723-0.34851-3.3916-0.11707-5.06104c0.49243-3.55615,4.07495-4.97412,3.17834-5.31299   c-4.81323-1.81152-5.77307,7.34424-5.54553,9.97559C181.55894,148.15829,184.59764,153.73691,190.10191,153.08994z"/><path d="M141.56651,127.60947c1.40405-0.09277,2.65259-0.14941,3.94629-0.54834c0.11792,2.47705,0.22949,4.94922,0.39612,7.42529   c0.0105,0.15576,0.25989,0.14063,0.27087-0.01074c0.19678-2.73145,0.37085-5.40625,0.2699-8.14502   c-0.01501-0.40479-0.52002-0.48779-0.78979-0.30518c0.92273-0.62549-3.74988,1.94238-3.86194,0.47607   c-0.10583-1.38574-0.23755-2.7793-0.2627-4.16895c-0.00537-0.32959-0.42554,0.46973-0.27246,4.98389   C141.26817,127.47324,141.40245,127.62021,141.56651,127.60947z"/><path d="M164.69322,115.87509c0.05542,0.30811,0.46655,0.57568,0.77026,0.45313c5.59265-2.25635,4.29175,0.36182,7.15283,5.61621   c0.12964,0.23828,0.48694,0.08838,0.43298-0.16895c-0.44275-2.11182-0.42627-5.1123-2.10022-6.72705   c-1.48926-1.43652-3.47156-0.89648-5.20544-0.19629c-0.64771-2.2793-2.99988-4.7876-2.56311-4.10791   C164.07603,112.12997,164.40294,114.26132,164.69322,115.87509z"/></g><text x="0" y="281" fill="#000000" font-size="5px" font-weight="bold" font-family="'Helvetica Neue', Helvetica, Arial-Unicode, Arial, Sans-serif">Created by Vectors Point</text><text x="0" y="286" fill="#000000" font-size="5px" font-weight="bold" font-family="'Helvetica Neue', Helvetica, Arial-Unicode, Arial, Sans-serif">from the Noun Project</text></svg>